<?xml version="1.0" encoding="utf-8"?>
<!-- Generator: Adobe Illustrator 27.3.1, SVG Export Plug-In . SVG Version: 6.00 Build 0)  -->
<svg version="1.1" id="Layer_1" xmlns="http://www.w3.org/2000/svg" xmlns:xlink="http://www.w3.org/1999/xlink" x="0px" y="0px"
	 viewBox="0 0 719.82 236.56" style="enable-background:new 0 0 719.82 236.56;" xml:space="preserve">
<style type="text/css">
	.st0{fill:#FFD800;}
	.st1{fill:#FFFFFF;}
</style>
<g>
	<path class="st0" d="M601.54,0c-65.32,0-118.28,52.96-118.28,118.28c0,65.32,52.96,118.28,118.28,118.28
		c65.32,0,118.28-52.96,118.28-118.28C719.82,52.96,666.87,0,601.54,0z M560.57,78.59v76.32v19.54h-27.18v-19.54V78.59V59.08h27.18
		V78.59z M673.28,180.68l-16.65-14.59c-8.84,5.84-19.55,9.13-31.12,9.13c-30.54,0-55.4-22.86-55.4-55.25
		c0-32.38,24.86-55.09,55.4-55.09c30.69,0,55.09,22.71,55.09,55.09c0,9.91-2.31,18.91-6.37,26.66l16.13,14.13L673.28,180.68z"/>
	<path class="st0" d="M625.51,88.67c-17.49,0-28.55,12.12-28.55,31.3c0,18.88,11.05,31.31,28.55,31.31c4.29,0,8.21-0.78,11.67-2.23
		l-18.34-16.07l17.07-19.93l17.2,15.07c0.5-2.56,0.79-5.27,0.79-8.15C653.9,100.79,642.69,88.67,625.51,88.67z"/>
</g>
<path class="st1" d="M53.17,86c21.24,0,38.13,17.05,38.13,44.33s-16.9,44.65-38.13,44.65c-12.71,0-21.85-6.05-26.66-13.33v53.33H0
	V87.24h26.5v12.25C31.31,91.89,40.46,86,53.17,86z M45.26,109.09c-9.92,0-18.91,7.6-18.91,21.39c0,13.8,8.99,21.39,18.91,21.39
	c10.07,0,19.07-7.75,19.07-21.55C64.33,116.54,55.34,109.09,45.26,109.09z"/>
<path class="st1" d="M97.5,59.03H124v39.84c5.27-7.44,14.73-12.56,26.66-12.56c19.69,0,32.86,13.64,32.86,36.9v50.53h-26.35v-46.97
	c0-11.78-6.51-18.29-16.59-18.29c-10.07,0-16.59,6.51-16.59,18.29v46.97H97.5V59.03z"/>
<path class="st1" d="M227.09,86c12.87,0,22.01,5.89,26.66,13.49V87.24h26.5v86.5h-26.5v-12.25c-4.81,7.6-13.96,13.49-26.82,13.49
	c-21.08,0-37.97-17.36-37.97-44.65S205.85,86,227.09,86z M234.84,109.09c-9.92,0-18.91,7.44-18.91,21.24
	c0,13.8,8.99,21.55,18.91,21.55c10.07,0,18.91-7.6,18.91-21.39C253.75,116.69,244.91,109.09,234.84,109.09z"/>
<path class="st1" d="M318.23,173.74h-26.5v-86.5h26.5v14.42c6.05-9.15,15.51-15.35,27.13-15.35v28.06h-7.29
	c-12.55,0-19.84,4.34-19.84,19.22V173.74z"/>
<path class="st1" d="M389.69,174.98c-25.42,0-44.64-17.05-44.64-44.49S364.73,86,390,86c25.42,0,44.95,17.05,44.95,44.49
	S415.11,174.98,389.69,174.98z M389.69,152.04c9.46,0,18.29-6.98,18.29-21.55c0-14.72-8.68-21.55-17.98-21.55
	c-9.61,0-17.98,6.82-17.98,21.55C372.01,145.06,380.08,152.04,389.69,152.04z"/>
<path class="st1" d="M476.49,174.98c-23.1,0-38.6-12.87-39.84-29.61h26.2c0.62,6.05,6.05,10.07,13.33,10.07
	c6.82,0,10.39-3.1,10.39-6.97c0-13.95-47.13-3.87-47.13-35.65C439.44,98.09,452,86,474.63,86c22.33,0,34.73,12.4,36.43,29.45h-24.49
	c-0.77-5.89-5.27-9.77-12.71-9.77c-6.2,0-9.61,2.48-9.61,6.67c0,13.8,46.81,4.03,47.28,36.27
	C511.53,163.66,498.19,174.98,476.49,174.98z"/>
</svg>
